<svg width="27" height="27" viewBox="0 0 27 27" fill="none" xmlns="http://www.w3.org/2000/svg">
<path d="M25.5 8.16667V18.8333C25.5 20.6014 24.7976 22.2971 23.5474 23.5474C22.2971 24.7976 20.6014 25.5 18.8333 25.5H8.16667C6.39856 25.5 4.70286 24.7976 3.45262 23.5474C2.20238 22.2971 1.5 20.6014 1.5 18.8333V8.16667C1.5 6.39856 2.20238 4.70286 3.45262 3.45262C4.70286 2.20238 6.39856 1.5 8.16667 1.5H18.8333C20.6014 1.5 22.2971 2.20238 23.5474 3.45262C24.7976 4.70286 25.5 6.39856 25.5 8.16667Z" stroke="#213721" stroke-width="1.5" stroke-linecap="round" stroke-linejoin="round"/>
<path d="M12.1667 25.5V13.5C12.1667 10.5827 12.8333 8.16666 17.5 8.16666M9.5 14.8333H17.5" stroke="#213721" stroke-width="1.5" stroke-linecap="round" stroke-linejoin="round"/>
</svg>
