<svg width="176" height="55" viewBox="0 0 176 55" fill="none" xmlns="http://www.w3.org/2000/svg">
<path d="M163.662 15.9819V27.1533C163.662 28.4676 165.1 28.6729 166.496 28.6729V28.9194H157.42V28.6729C158.816 28.6729 160.253 28.4676 160.253 27.1533V16.8854L151.998 1.97651C151.136 0.497943 150.437 0.415801 149.041 0.415801V0.210442H158.159V0.415801C156.762 0.415801 155.161 0.580085 155.859 1.89437L162.964 14.7497H163.005L163.416 15.5301L170.562 1.97651C171.343 0.621158 170.234 0.415801 168.837 0.415801V0.210442H175.491V0.415801C174.053 0.415801 171.836 0.662229 171.055 1.97651L163.662 15.9819Z" fill="#213721"/>
<path d="M125.497 7.11045L127.346 0.169373H144.719L146.567 7.11045L146.362 7.15152L144.801 1.97652C144.39 0.826517 143.61 0.62116 142.295 0.62116H140.488C139.133 0.62116 137.737 0.62116 137.737 1.93545V27.1533C137.737 28.4676 139.174 28.6729 140.57 28.6729V28.9194H131.453V28.6729C132.89 28.6729 134.328 28.4676 134.328 27.1533V1.93545C134.328 0.62116 132.931 0.62116 131.535 0.62116H129.769C128.454 0.62116 127.633 0.826517 127.263 1.97652L125.703 7.15152L125.497 7.11045Z" fill="#213721"/>
<path d="M117.162 15.4479H116.956C116.956 10.9711 115.806 10.2729 114.369 10.2729H113.219C111.987 10.2729 110.672 10.4372 109.44 10.7658V27.1533C109.44 28.4676 110.837 28.4676 112.233 28.4676H118.764C120.078 28.4676 120.899 28.3033 121.269 27.1122L122.83 21.9372L123.035 21.9783L121.187 28.9194H103.198V28.714C104.594 28.714 106.031 28.4676 106.031 27.1533V12.3676C104.471 13.5176 103.403 15.2015 103.403 17.5015H103.198C103.198 14.9961 104.348 13.1479 106.031 11.9158V1.9765C106.031 0.621139 104.594 0.415782 103.198 0.415782V0.210423H121.187L123.035 7.11042L122.83 7.19257L121.269 1.9765C120.899 0.826496 120.078 0.621139 118.764 0.621139H112.233C110.837 0.621139 109.44 0.621139 109.44 1.9765V10.3551C110.672 10.0265 111.987 9.86221 113.219 9.86221H114.369C115.806 9.86221 116.956 9.57471 116.956 6.90507H117.162V15.4479Z" fill="#213721"/>
<path d="M83.5565 0.210423V0.415782C82.3654 0.415782 81.0922 0.580065 81.0101 1.48364L88.1154 20.8283L89.1832 23.8265L96.9046 1.9765H96.8636C97.2743 0.621139 95.4671 0.415782 94.0707 0.415782V0.210423H100.724V0.415782C99.41 0.415782 97.9725 0.538995 97.4386 1.64792L87.869 28.9194H87.4172V28.8783L77.519 1.9765C77.0672 0.456853 75.8762 0.415782 74.4797 0.415782V0.210423H83.5565Z" fill="#213721"/>
<path d="M58.4223 1.97651V27.1533C58.4223 28.4676 59.8188 28.5087 61.1741 28.5087H67.7044C69.0598 28.5087 69.8401 28.3033 70.2509 27.1533L71.8116 21.9372L72.0169 22.0194L70.1687 28.9194H52.1384V28.714C53.5759 28.714 55.0134 28.5087 55.0134 27.1533V1.97651C55.0134 0.621158 53.5759 0.415801 52.1384 0.415801V0.210442H61.2562V0.415801C59.8598 0.415801 58.4223 0.621158 58.4223 1.97651Z" fill="#213721"/>
<path d="M43.8029 15.4479H43.5975C43.5975 10.9712 42.4475 10.2729 41.01 10.2729H39.86C38.6279 10.2729 37.3136 10.4372 36.0815 10.7658V27.1533C36.0815 28.4676 37.4779 28.4676 38.8743 28.4676H45.4046C46.7189 28.4676 47.5403 28.3033 47.91 27.1122L49.4707 21.9372L49.676 21.9783L47.8278 28.9194H29.8386V28.714C31.235 28.714 32.6725 28.4676 32.6725 27.1533V12.3676C31.1118 13.5176 30.044 15.2015 30.044 17.5015H29.8386C29.8386 14.9962 30.9886 13.1479 32.6725 11.9158V1.97651C32.6725 0.621158 31.235 0.415801 29.8386 0.415801V0.210442H47.8278L49.676 7.11044L49.4707 7.19258L47.91 1.97651C47.5403 0.826515 46.7189 0.621158 45.4046 0.621158H38.8743C37.4779 0.621158 36.0815 0.621158 36.0815 1.97651V10.3551C37.3136 10.0265 38.6279 9.86223 39.86 9.86223H41.01C42.4475 9.86223 43.5975 9.57473 43.5975 6.90509H43.8029V15.4479Z" fill="#213721"/>
<path d="M10.1978 0.210423V0.415782C9.00678 0.415782 7.73357 0.580065 7.65142 1.48364L14.7568 20.8283L15.8246 23.8265L23.546 1.9765H23.5049C23.9156 0.621139 22.1085 0.415782 20.7121 0.415782V0.210423H27.3656V0.415782C26.0514 0.415782 24.6139 0.538995 24.0799 1.64792L14.5103 28.9194H14.0585V28.8783L4.16037 1.9765C3.70858 0.456853 2.51752 0.415782 1.12109 0.415782V0.210423H10.1978Z" fill="#213721"/>
<path d="M144.6 53.9775C143.788 53.9775 143.175 53.7511 142.763 53.2984C142.363 52.8591 142.164 52.3132 142.164 51.6608C142.164 51.0617 142.31 50.4292 142.603 49.7635C142.909 49.0978 143.309 48.472 143.801 47.8862C144.307 47.3004 144.86 46.8277 145.459 46.4683C146.058 46.0955 146.65 45.9091 147.236 45.9091C147.542 45.9091 147.822 45.989 148.075 46.1487C148.341 46.3085 148.474 46.6347 148.474 47.1273C148.474 47.6333 148.321 48.1126 148.015 48.5652C147.722 49.0046 147.329 49.3974 146.837 49.7436C146.358 50.0897 145.825 50.376 145.239 50.6023C144.667 50.8153 144.094 50.9485 143.522 51.0017C143.495 51.1349 143.475 51.2614 143.462 51.3812C143.448 51.501 143.442 51.6142 143.442 51.7207C143.442 51.9204 143.462 52.1201 143.502 52.3198C143.555 52.5196 143.641 52.706 143.761 52.879C143.881 53.0388 144.041 53.1653 144.241 53.2585C144.454 53.3517 144.713 53.3983 145.019 53.3983C145.592 53.3983 146.158 53.2385 146.717 52.919C147.276 52.5861 147.795 52.1534 148.275 51.6208C148.754 51.0883 149.16 50.5025 149.493 49.8634L149.733 50.0431C149.373 50.842 148.914 51.5343 148.355 52.1201C147.809 52.706 147.21 53.1586 146.557 53.4782C145.918 53.811 145.266 53.9775 144.6 53.9775ZM143.621 50.6223C143.981 50.5025 144.387 50.3294 144.84 50.103C145.292 49.8634 145.725 49.5838 146.138 49.2642C146.564 48.9447 146.91 48.5919 147.176 48.2058C147.456 47.8197 147.596 47.4136 147.596 46.9875C147.596 46.8411 147.569 46.7279 147.516 46.648C147.463 46.5681 147.349 46.5282 147.176 46.5282C146.857 46.5282 146.517 46.6547 146.158 46.9076C145.798 47.1473 145.452 47.4668 145.119 47.8663C144.786 48.2657 144.487 48.705 144.221 49.1844C143.954 49.6637 143.755 50.143 143.621 50.6223Z" fill="#213721"/>
<path d="M138.956 53.618C138.503 53.618 138.143 53.4982 137.877 53.2585C137.624 53.0188 137.498 52.706 137.498 52.3198C137.498 51.9204 137.591 51.501 137.777 51.0617C137.964 50.6223 138.143 50.1896 138.316 49.7635C138.503 49.3242 138.596 48.9314 138.596 48.5852C138.596 48.1592 138.47 47.8463 138.217 47.6466C137.977 47.4335 137.731 47.2405 137.478 47.0674C137.171 47.8529 136.852 48.5985 136.519 49.3042C136.186 50.0098 135.913 50.5424 135.7 50.9019L135.521 50.5624C135.707 50.2162 135.947 49.7103 136.239 49.0446C136.546 48.3789 136.845 47.6199 137.138 46.7678C137.005 46.6347 136.938 46.4749 136.938 46.2885C136.938 45.8891 137.052 45.5629 137.278 45.3099C137.504 45.057 137.671 44.9305 137.777 44.9305C137.924 44.9305 138.004 44.9971 138.017 45.1302C138.044 45.25 138.057 45.3432 138.057 45.4098C138.057 45.4764 138.017 45.6095 137.937 45.8092C137.87 45.9956 137.837 46.1088 137.837 46.1487C137.837 46.3351 137.937 46.5082 138.137 46.668C138.35 46.8144 138.589 46.9875 138.856 47.1872C139.122 47.3736 139.355 47.6066 139.555 47.8862C139.768 48.1525 139.874 48.4987 139.874 48.9247C139.874 49.3242 139.788 49.7302 139.615 50.143C139.455 50.5557 139.288 50.9485 139.115 51.3213C138.956 51.6941 138.876 52.0203 138.876 52.2999C138.876 52.5395 138.936 52.6993 139.055 52.7792C139.175 52.8591 139.315 52.899 139.475 52.899C139.794 52.899 140.121 52.7992 140.453 52.5994C140.8 52.3997 141.132 52.1468 141.452 51.8405C141.772 51.5343 142.058 51.2148 142.311 50.8819C142.564 50.5357 142.75 50.2162 142.87 49.9233L143.13 50.123C142.877 50.6822 142.53 51.2347 142.091 51.7806C141.652 52.3132 141.159 52.7526 140.613 53.0987C140.081 53.4449 139.528 53.618 138.956 53.618Z" fill="#213721"/>
<path d="M127.761 54.0373C127.348 54.0373 127.002 53.8975 126.723 53.6179C126.43 53.3517 126.283 52.9389 126.283 52.3797C126.283 51.9004 126.39 51.3878 126.603 50.8419C126.816 50.2827 127.109 49.7369 127.481 49.2043C127.854 48.6584 128.274 48.1658 128.74 47.7264C129.219 47.2737 129.718 46.9143 130.238 46.648C130.77 46.3817 131.296 46.2485 131.815 46.2485C132.334 46.2485 132.767 46.3883 133.113 46.6679C133.46 46.9342 133.633 47.2937 133.633 47.7464C133.633 48.0792 133.539 48.3056 133.353 48.4254C133.18 48.5452 132.947 48.6052 132.654 48.6052C132.681 48.4986 132.701 48.3855 132.714 48.2656C132.741 48.1325 132.754 48.0127 132.754 47.9062C132.754 47.5999 132.681 47.3403 132.534 47.1273C132.388 46.9009 132.135 46.7878 131.775 46.7878C131.403 46.7878 131.023 46.9209 130.637 47.1872C130.251 47.4402 129.878 47.7863 129.519 48.2257C129.159 48.6518 128.84 49.1178 128.56 49.6237C128.28 50.1296 128.061 50.6289 127.901 51.1215C127.741 51.6142 127.661 52.0535 127.661 52.4396C127.661 52.9589 127.841 53.2185 128.2 53.2185C128.507 53.2185 128.84 53.0787 129.199 52.7991C129.558 52.5062 129.925 52.1401 130.297 51.7007C130.684 51.248 131.05 50.782 131.396 50.3027C131.742 49.8234 132.048 49.384 132.315 48.9846C132.368 48.9047 132.401 48.8648 132.414 48.8648C132.494 48.8781 132.594 48.9047 132.714 48.9447C132.847 48.9846 132.96 49.0379 133.053 49.1044C133.147 49.171 133.193 49.2576 133.193 49.3641C133.193 49.4839 133.133 49.6503 133.014 49.8633C132.894 50.0631 132.761 50.2961 132.614 50.5623C132.468 50.8286 132.334 51.1016 132.215 51.3812C132.095 51.6474 132.035 51.9004 132.035 52.1401C132.035 52.3398 132.088 52.5395 132.195 52.7392C132.301 52.9256 132.474 53.0188 132.714 53.0188C133.073 53.0188 133.546 52.7592 134.132 52.2399C134.718 51.7074 135.31 50.9152 135.909 49.8633L136.109 50.0631C135.829 50.782 135.47 51.4144 135.031 51.9603C134.591 52.5062 134.119 52.9323 133.613 53.2385C133.12 53.5447 132.634 53.6978 132.155 53.6978C131.662 53.6978 131.296 53.5514 131.056 53.2585C130.83 52.9655 130.717 52.646 130.717 52.2998C130.717 52.22 130.723 52.1334 130.737 52.0402C130.75 51.9337 130.763 51.8272 130.777 51.7207C130.204 52.4929 129.678 53.0721 129.199 53.4582C128.733 53.8443 128.254 54.0373 127.761 54.0373Z" fill="#213721"/>
<path d="M122.484 54.2171C121.845 54.2171 121.312 54.0041 120.886 53.578C120.46 53.152 120.247 52.5129 120.247 51.6608C120.247 50.9951 120.374 50.3493 120.627 49.7236C120.893 49.0845 121.239 48.512 121.665 48.006C122.091 47.5001 122.564 47.1007 123.083 46.8078C123.602 46.5015 124.115 46.3484 124.621 46.3484C125.167 46.3484 125.539 46.5082 125.739 46.8277C125.939 47.1473 126.039 47.4801 126.039 47.8263C126.039 48.2124 125.946 48.5519 125.759 48.8448C125.586 49.1377 125.346 49.2842 125.04 49.2842C124.814 49.2842 124.621 49.1843 124.461 48.9846C124.661 48.8781 124.834 48.6651 124.98 48.3455C125.127 48.0127 125.2 47.6998 125.2 47.4069C125.2 47.2471 125.167 47.1273 125.1 47.0474C125.047 46.9542 124.934 46.9076 124.761 46.9076C124.401 46.9076 124.028 47.0674 123.642 47.3869C123.269 47.7065 122.917 48.1192 122.584 48.6251C122.264 49.1311 121.998 49.6637 121.785 50.2228C121.585 50.782 121.485 51.308 121.485 51.8006C121.485 52.2133 121.585 52.5928 121.785 52.9389C121.985 53.2851 122.371 53.4582 122.943 53.4582C123.476 53.4582 124.008 53.3117 124.541 53.0188C125.087 52.7259 125.593 52.3065 126.059 51.7606C126.525 51.2148 126.898 50.5757 127.177 49.8434L127.437 50.0431C127.131 50.842 126.711 51.5609 126.179 52.2C125.646 52.8258 125.06 53.3184 124.421 53.6779C123.782 54.0374 123.136 54.2171 122.484 54.2171Z" fill="#213721"/>
<path d="M117.494 53.4982C117.028 53.4982 116.675 53.3783 116.436 53.1387C116.209 52.899 116.096 52.5928 116.096 52.22C116.096 51.9404 116.143 51.6475 116.236 51.3413C116.342 51.035 116.442 50.7222 116.535 50.4026C116.629 50.0698 116.675 49.7502 116.675 49.444C116.675 49.0712 116.595 48.8182 116.436 48.6851C116.289 48.5386 116.103 48.4654 115.876 48.4654C115.464 48.4654 115.044 48.6385 114.618 48.9847C114.192 49.3175 113.779 49.7502 113.38 50.2828C112.981 50.802 112.608 51.3413 112.262 51.9005C111.915 52.4597 111.609 52.9589 111.343 53.3983C111.13 53.3983 110.93 53.3584 110.744 53.2785C110.544 53.2119 110.391 53.1054 110.284 52.9589C110.284 52.8924 110.358 52.686 110.504 52.3398C110.637 51.9937 110.797 51.5676 110.983 51.0617C111.17 50.5557 111.336 50.0365 111.483 49.5039C111.629 48.9713 111.702 48.4854 111.702 48.046C111.782 47.9528 111.909 47.8596 112.082 47.7664C112.255 47.6732 112.435 47.6266 112.621 47.6266C112.981 47.6266 113.16 47.7997 113.16 48.1459C113.16 48.3589 113.1 48.7184 112.981 49.2243C112.861 49.7169 112.708 50.2362 112.521 50.7821C112.881 50.2362 113.28 49.697 113.719 49.1644C114.172 48.6185 114.651 48.1658 115.157 47.8064C115.663 47.4469 116.169 47.2671 116.675 47.2671C117.194 47.2671 117.567 47.4535 117.794 47.8263C118.033 48.1991 118.153 48.6119 118.153 49.0645C118.153 49.4773 118.087 49.8634 117.953 50.2229C117.82 50.569 117.68 50.9086 117.534 51.2414C117.401 51.561 117.334 51.8871 117.334 52.22C117.334 52.4996 117.388 52.6993 117.494 52.8191C117.614 52.9257 117.76 52.9789 117.933 52.9789C118.266 52.9789 118.599 52.8258 118.932 52.5196C119.265 52.2 119.584 51.8006 119.891 51.3213C120.21 50.842 120.49 50.356 120.729 49.8634L120.949 50.123C120.669 50.7754 120.357 51.3546 120.01 51.8605C119.664 52.3665 119.285 52.7659 118.872 53.0588C118.459 53.3517 118 53.4982 117.494 53.4982Z" fill="#213721"/>
<path d="M107.664 53.6179C107.145 53.6179 106.759 53.4515 106.506 53.1187C106.253 52.7991 106.127 52.4064 106.127 51.9404C106.127 51.6341 106.18 51.248 106.286 50.782C106.406 50.316 106.559 49.8301 106.746 49.3241C106.932 48.8049 107.145 48.3189 107.385 47.8662C107.638 47.4135 107.904 47.0474 108.184 46.7678C108.463 46.4749 108.736 46.3284 109.003 46.3284C109.122 46.3284 109.222 46.3684 109.302 46.4483C109.395 46.5148 109.442 46.6213 109.442 46.7678C109.442 46.9276 109.335 47.1872 109.122 47.5467C108.923 47.9062 108.683 48.3189 108.403 48.7849C108.124 49.2509 107.878 49.7435 107.664 50.2628C107.465 50.7687 107.365 51.2547 107.365 51.7207C107.365 52.2 107.445 52.5195 107.605 52.6793C107.764 52.8391 108.011 52.919 108.344 52.919C108.796 52.919 109.276 52.6926 109.781 52.2399C110.301 51.7872 110.847 50.9951 111.419 49.8633L111.599 50.0631C111.213 51.2081 110.654 52.0868 109.921 52.6993C109.202 53.3117 108.45 53.6179 107.664 53.6179ZM110.061 44.4711C109.848 44.4711 109.655 44.4179 109.482 44.3113C109.322 44.2048 109.242 44.0384 109.242 43.8121C109.242 43.5325 109.402 43.2928 109.722 43.0931C110.054 42.8801 110.381 42.7736 110.7 42.7736C110.9 42.7736 111.06 42.8202 111.179 42.9134C111.299 43.0065 111.359 43.1663 111.359 43.3927C111.359 43.6456 111.219 43.8919 110.94 44.1316C110.674 44.3579 110.381 44.4711 110.061 44.4711Z" fill="#213721"/>
<path d="M103.244 53.8576C102.872 53.8576 102.552 53.7311 102.286 53.4782C102.02 53.2252 101.806 52.9057 101.647 52.5196C101.5 52.1334 101.387 51.7407 101.307 51.3413C101.241 50.9285 101.207 50.569 101.207 50.2628C101.354 50.2628 101.567 50.2295 101.846 50.1629C102.126 50.0831 102.412 49.9699 102.705 49.8234C102.998 49.6637 103.244 49.464 103.444 49.2243C103.657 48.9713 103.764 48.6784 103.764 48.3456C103.764 48.066 103.664 47.8463 103.464 47.6865C103.264 47.5267 103.031 47.4469 102.765 47.4469C102.352 47.4469 101.966 47.5933 101.607 47.8862C101.247 48.1658 100.921 48.5386 100.628 49.0046C100.349 49.4573 100.096 49.9433 99.8693 50.4625C99.6429 50.9818 99.4499 51.4744 99.2901 51.9404C99.1303 52.4064 98.9972 52.7925 98.8907 53.0987C98.8108 53.3384 98.6976 53.4981 98.5512 53.578C98.4047 53.6712 98.2516 53.7178 98.0918 53.7178C97.8655 53.7178 97.699 53.6246 97.5925 53.4382C97.4993 53.2518 97.4394 53.0188 97.4128 52.7392C97.3995 52.4463 97.3928 52.1468 97.3928 51.8405C97.3928 51.1482 97.506 50.3493 97.7323 49.444C97.9587 48.5386 98.2582 47.6 98.631 46.628C99.0172 45.6428 99.4365 44.6908 99.8892 43.7721C100.342 42.8535 100.795 42.0213 101.247 41.2757C101.7 40.5301 102.119 39.9377 102.505 39.4983C102.892 39.0589 103.204 38.8392 103.444 38.8392C103.631 38.8392 103.777 38.9657 103.883 39.2187C104.003 39.4717 104.063 39.7779 104.063 40.1374C104.063 40.5901 103.963 41.1027 103.764 41.6752C103.564 42.2344 103.278 42.8002 102.905 43.3727C102.545 43.9452 102.113 44.4845 101.607 44.9904C101.114 45.4963 100.575 45.929 99.9891 46.2885C99.5497 47.367 99.2169 48.4188 98.9905 49.444C98.7775 50.4559 98.671 51.308 98.671 52.0003C98.884 51.4677 99.137 50.8819 99.4299 50.2428C99.7361 49.6038 100.082 48.9913 100.468 48.4055C100.855 47.8197 101.274 47.3403 101.727 46.9675C102.179 46.5947 102.652 46.4083 103.145 46.4083C103.637 46.4083 104.057 46.5814 104.403 46.9276C104.749 47.2738 104.922 47.6932 104.922 48.1858C104.922 48.6118 104.809 48.978 104.582 49.2842C104.369 49.5771 104.103 49.8168 103.784 50.0032C103.477 50.1763 103.165 50.3094 102.845 50.4026C102.539 50.4825 102.286 50.5224 102.086 50.5224C102.099 50.6289 102.139 50.822 102.206 51.1016C102.272 51.3812 102.366 51.6741 102.485 51.9803C102.619 52.2866 102.778 52.5528 102.965 52.7792C103.151 52.9922 103.378 53.0987 103.644 53.0987C104.03 53.0987 104.396 52.9523 104.742 52.6594C105.088 52.3664 105.415 51.9803 105.721 51.501C106.04 51.0084 106.333 50.4559 106.6 49.8434L106.799 50.0431C106.613 50.6955 106.327 51.3146 105.941 51.9004C105.554 52.473 105.122 52.939 104.642 53.2984C104.176 53.6712 103.71 53.8576 103.244 53.8576ZM100.329 45.4897C100.941 44.997 101.474 44.4379 101.926 43.8121C102.392 43.1863 102.752 42.5872 103.005 42.0147C103.258 41.4288 103.384 40.9695 103.384 40.6367C103.384 40.5701 103.378 40.5235 103.364 40.4969C103.364 40.4702 103.351 40.4569 103.324 40.4569C103.191 40.4569 102.958 40.6899 102.625 41.1559C102.306 41.6219 101.94 42.241 101.527 43.0132C101.114 43.7721 100.715 44.5976 100.329 45.4897Z" fill="#213721"/>
<path d="M92.5257 54.1173C91.8999 54.1173 91.4007 53.9775 91.0279 53.6979C90.6684 53.4316 90.4154 53.0987 90.269 52.6993C90.1092 52.2999 90.0293 51.9004 90.0293 51.501C90.0293 51.1016 90.0826 50.7954 90.1891 50.5823C90.2956 50.3693 90.4221 50.2095 90.5685 50.103C90.7283 49.9965 90.8747 49.9166 91.0079 49.8634C91.1543 49.8101 91.2542 49.7569 91.3075 49.7036C91.7069 49.2642 92.073 48.8049 92.4059 48.3256C92.7387 47.8463 93.0316 47.3403 93.2846 46.8078V46.5681C93.2846 46.0755 93.3645 45.7293 93.5243 45.5296C93.6974 45.3166 93.8771 45.2101 94.0635 45.2101C94.17 45.2101 94.2499 45.2367 94.3031 45.29C94.3564 45.3432 94.383 45.4031 94.383 45.4697C94.383 45.5363 94.3631 45.6428 94.3231 45.7892C94.2832 45.9357 94.2632 46.1221 94.2632 46.3484C94.2632 46.7878 94.3497 47.2671 94.5228 47.7864C94.6959 48.2923 94.869 48.8315 95.0421 49.404C95.2152 49.9632 95.3017 50.5491 95.3017 51.1615C95.3017 51.3346 95.2884 51.5077 95.2618 51.6808C95.2485 51.8405 95.2218 51.9936 95.1819 52.1401C95.6479 52.0602 96.0872 51.8538 96.5 51.521C96.9127 51.1748 97.3122 50.6289 97.6983 49.8833L97.878 50.0831C97.625 50.8153 97.2456 51.3745 96.7396 51.7606C96.2337 52.1334 95.6812 52.3664 95.082 52.4596C94.869 53.0322 94.5295 53.4515 94.0635 53.7178C93.6108 53.9841 93.0982 54.1173 92.5257 54.1173ZM92.5656 53.4183C92.7254 53.4183 92.9384 53.365 93.2047 53.2585C93.471 53.152 93.6774 52.879 93.8238 52.4397C93.2646 52.3332 92.7654 52.1135 92.326 51.7806C91.8999 51.4478 91.5804 51.1149 91.3674 50.7821C91.0745 50.7954 90.928 51.0284 90.928 51.4811C90.928 51.9604 91.0678 52.4064 91.3474 52.8191C91.6403 53.2186 92.0464 53.4183 92.5656 53.4183ZM93.9237 52.1201C93.9503 51.987 93.9703 51.8472 93.9836 51.7007C93.9969 51.5543 94.0036 51.3812 94.0036 51.1815C94.0036 50.5557 93.9237 49.9366 93.7639 49.3242C93.6175 48.6984 93.491 48.1126 93.3845 47.5667C93.0782 48.0726 92.752 48.5586 92.4059 49.0246C92.073 49.4773 91.7535 49.8567 91.4473 50.1629C91.647 50.589 91.9532 50.9884 92.3659 51.3612C92.792 51.734 93.3112 51.987 93.9237 52.1201Z" fill="#213721"/>
<path d="M76.7694 54.8362C75.9705 54.8362 75.2782 54.6698 74.6924 54.3369C74.1066 54.0041 73.6539 53.5647 73.3343 53.0188C73.0281 52.4596 72.875 51.8538 72.875 51.2014C72.875 50.589 73.0081 49.9898 73.2744 49.404C73.5407 48.8182 73.9068 48.2856 74.3728 47.8063C74.8522 47.3137 75.4047 46.9143 76.0305 46.608C76.6562 46.2885 77.3286 46.0954 78.0476 46.0289C77.5283 45.6028 77.1422 45.1102 76.8892 44.551C76.6496 43.9918 76.5297 43.4326 76.5297 42.8734C76.5297 42.1678 76.7095 41.5021 77.069 40.8763C77.4284 40.2372 77.9144 39.7246 78.5269 39.3385C79.1526 38.9391 79.8649 38.7394 80.6638 38.7394C81.3828 38.7394 81.922 38.9191 82.2815 39.2786C82.6543 39.6381 82.8407 40.164 82.8407 40.8563C82.8407 41.3489 82.7608 41.8349 82.601 42.3142C82.4412 42.7802 82.2415 43.1663 82.0019 43.4726C81.7755 43.7655 81.5492 43.9119 81.3228 43.9119C81.1764 43.9119 81.0366 43.852 80.9034 43.7322C80.7703 43.599 80.6638 43.4459 80.5839 43.2728C81.0499 42.8601 81.436 42.434 81.7422 41.9947C82.0618 41.542 82.2216 41.056 82.2216 40.5368C82.2216 40.124 82.1084 39.7912 81.882 39.5382C81.669 39.2719 81.3295 39.1388 80.8635 39.1388C80.2377 39.1388 79.7118 39.3318 79.2858 39.718C78.8597 40.0908 78.5335 40.59 78.3072 41.2158C78.0942 41.8283 77.9876 42.494 77.9876 43.2129C77.9876 43.5325 78.0143 43.872 78.0675 44.2315C78.1341 44.5909 78.2473 44.9438 78.407 45.2899C78.5801 45.6361 78.8264 45.949 79.146 46.2286C78.2539 46.375 77.475 46.7146 76.8093 47.2471C76.1569 47.7797 75.6444 48.4055 75.2716 49.1244C74.9121 49.8434 74.7323 50.5557 74.7323 51.2613C74.7323 51.7007 74.8122 52.1467 74.972 52.5994C75.1451 53.0388 75.418 53.4049 75.7908 53.6978C76.1636 54.0041 76.6629 54.1572 77.2886 54.1572C77.9943 54.1572 78.6733 53.9774 79.3257 53.618C79.9914 53.2585 80.5906 52.7792 81.1231 52.18C81.669 51.5809 82.115 50.9085 82.4612 50.1629C82.8074 49.404 83.0271 48.6251 83.1203 47.8263C82.8407 47.8396 82.581 47.8596 82.3414 47.8862C82.115 47.9128 81.8621 47.9528 81.5825 48.006C81.3029 48.046 80.9434 48.1125 80.504 48.2057C80.5306 47.6465 80.7437 47.2738 81.1431 47.0874C81.5425 46.901 82.0218 46.8078 82.581 46.8078C82.9805 46.8078 83.3599 46.8344 83.7194 46.8876C84.0789 46.9409 84.4184 46.9942 84.7379 47.0474C85.0708 47.1007 85.3704 47.134 85.6366 47.1473C85.4902 47.4535 85.3437 47.6399 85.1973 47.7065C85.0641 47.7597 84.931 47.7863 84.7978 47.7863C84.5715 47.7863 84.3585 47.793 84.1588 47.8063C83.9724 47.8063 83.7993 47.8063 83.6395 47.8063C83.5463 48.725 83.2933 49.6037 82.8806 50.4425C82.4812 51.2813 81.9619 52.0336 81.3228 52.6993C80.6971 53.3517 79.9914 53.8709 79.2059 54.257C78.4337 54.6431 77.6215 54.8362 76.7694 54.8362Z" fill="#213721"/>
<path d="M64.6844 53.6978C64.1119 53.6978 63.6991 53.4981 63.4462 53.0987C63.2065 52.7126 63.0867 52.2266 63.0867 51.6408C63.0867 51.0017 63.2065 50.2428 63.4462 49.3641C63.6858 48.4853 63.9987 47.56 64.3848 46.5881C64.7842 45.6161 65.2169 44.6708 65.6829 43.7522C66.1489 42.8202 66.6149 41.9747 67.0809 41.2158C67.5469 40.4569 67.973 39.8511 68.3591 39.3984C68.7585 38.9457 69.0714 38.7194 69.2977 38.7194C69.4442 38.7194 69.564 38.8059 69.6572 38.979C69.7504 39.1388 69.8236 39.3385 69.8769 39.5782C69.9302 39.8045 69.9568 40.0109 69.9568 40.1973C69.9568 40.5568 69.8636 41.0294 69.6772 41.6152C69.5041 42.1877 69.2511 42.8335 68.9183 43.5524C68.5987 44.2581 68.2126 44.9771 67.7599 45.7093C67.3206 46.4283 66.8346 47.1206 66.302 47.7864C65.7828 48.4521 65.2303 49.0246 64.6444 49.5039C64.5645 49.8634 64.498 50.2162 64.4447 50.5624C64.4048 50.8952 64.3848 51.2148 64.3848 51.521C64.3848 52.0402 64.458 52.4263 64.6045 52.6793C64.7509 52.9323 64.9706 53.0588 65.2635 53.0588C65.623 53.0588 65.9758 52.899 66.322 52.5795C66.6815 52.2599 67.0143 51.8605 67.3206 51.3812C67.6401 50.8886 67.9131 50.3826 68.1394 49.8634L68.439 50.0231C67.9064 51.1548 67.3272 52.0535 66.7015 52.7193C66.0757 53.3717 65.4033 53.6978 64.6844 53.6978ZM64.8242 48.8249C65.2902 48.3589 65.7428 47.8263 66.1822 47.2272C66.6216 46.6147 67.0277 45.9823 67.4005 45.3299C67.7866 44.6775 68.1261 44.0451 68.419 43.4326C68.7119 42.8202 68.9382 42.2743 69.098 41.795C69.2578 41.3024 69.3377 40.9229 69.3377 40.6566C69.3377 40.5235 69.3177 40.4369 69.2778 40.397C69.2511 40.357 69.2245 40.3371 69.1979 40.3371C69.0914 40.3371 68.905 40.5102 68.6387 40.8563C68.3857 41.1892 68.0861 41.6419 67.74 42.2144C67.3938 42.7869 67.041 43.4393 66.6815 44.1716C66.322 44.9038 65.9758 45.6694 65.643 46.4683C65.3235 47.2671 65.0505 48.0526 64.8242 48.8249Z" fill="#213721"/>
<path d="M55.2872 54.0373C54.8745 54.0373 54.5283 53.8975 54.2487 53.6179C53.9558 53.3517 53.8093 52.9389 53.8093 52.3797C53.8093 51.9004 53.9158 51.3878 54.1289 50.8419C54.3419 50.2827 54.6348 49.7369 55.0076 49.2043C55.3804 48.6584 55.7998 48.1658 56.2658 47.7264C56.7451 47.2737 57.2444 46.9143 57.7636 46.648C58.2962 46.3817 58.8221 46.2485 59.3414 46.2485C59.8606 46.2485 60.2933 46.3883 60.6395 46.6679C60.9857 46.9342 61.1588 47.2937 61.1588 47.7464C61.1588 48.0792 61.0656 48.3056 60.8792 48.4254C60.7061 48.5452 60.4731 48.6052 60.1802 48.6052C60.2068 48.4986 60.2268 48.3855 60.2401 48.2656C60.2667 48.1325 60.28 48.0127 60.28 47.9062C60.28 47.5999 60.2068 47.3403 60.0603 47.1273C59.9139 46.9009 59.6609 46.7878 59.3014 46.7878C58.9286 46.7878 58.5492 46.9209 58.1631 47.1872C57.777 47.4402 57.4042 47.7863 57.0447 48.2257C56.6852 48.6518 56.3656 49.1178 56.0861 49.6237C55.8065 50.1296 55.5868 50.6289 55.427 51.1215C55.2672 51.6142 55.1873 52.0535 55.1873 52.4396C55.1873 52.9589 55.3671 53.2185 55.7266 53.2185C56.0328 53.2185 56.3656 53.0787 56.7251 52.7991C57.0846 52.5062 57.4508 52.1401 57.8235 51.7007C58.2097 51.248 58.5758 50.782 58.922 50.3027C59.2681 49.8234 59.5744 49.384 59.8406 48.9846C59.8939 48.9047 59.9272 48.8648 59.9405 48.8648C60.0204 48.8781 60.1202 48.9047 60.2401 48.9447C60.3732 48.9846 60.4864 49.0379 60.5796 49.1044C60.6728 49.171 60.7194 49.2576 60.7194 49.3641C60.7194 49.4839 60.6595 49.6503 60.5396 49.8633C60.4198 50.0631 60.2867 50.2961 60.1402 50.5623C59.9938 50.8286 59.8606 51.1016 59.7408 51.3812C59.621 51.6474 59.5611 51.9004 59.5611 52.1401C59.5611 52.3398 59.6143 52.5395 59.7208 52.7392C59.8273 52.9256 60.0004 53.0188 60.2401 53.0188C60.5996 53.0188 61.0722 52.7592 61.658 52.2399C62.2439 51.7074 62.8363 50.9152 63.4355 49.8633L63.6352 50.0631C63.3556 50.782 62.9961 51.4144 62.5567 51.9603C62.1174 52.5062 61.6447 52.9323 61.1388 53.2385C60.6462 53.5447 60.1602 53.6978 59.6809 53.6978C59.1883 53.6978 58.8221 53.5514 58.5825 53.2585C58.3561 52.9655 58.2429 52.646 58.2429 52.2998C58.2429 52.22 58.2496 52.1334 58.2629 52.0402C58.2762 51.9337 58.2895 51.8272 58.3029 51.7207C57.7304 52.4929 57.2044 53.0721 56.7251 53.4582C56.2591 53.8443 55.7798 54.0373 55.2872 54.0373Z" fill="#213721"/>
<path d="M50.9492 53.6179C50.4299 53.6179 50.0438 53.4515 49.7908 53.1187C49.5379 52.7991 49.4114 52.4064 49.4114 51.9404C49.4114 51.6341 49.4646 51.248 49.5711 50.782C49.691 50.316 49.8441 49.8301 50.0305 49.3241C50.2169 48.8049 50.4299 48.3189 50.6696 47.8662C50.9225 47.4135 51.1888 47.0474 51.4684 46.7678C51.748 46.4749 52.021 46.3284 52.2872 46.3284C52.4071 46.3284 52.5069 46.3684 52.5868 46.4483C52.68 46.5148 52.7266 46.6213 52.7266 46.7678C52.7266 46.9276 52.6201 47.1872 52.4071 47.5467C52.2074 47.9062 51.9677 48.3189 51.6881 48.7849C51.4085 49.2509 51.1622 49.7435 50.9492 50.2628C50.7495 50.7687 50.6496 51.2547 50.6496 51.7207C50.6496 52.2 50.7295 52.5195 50.8893 52.6793C51.049 52.8391 51.2953 52.919 51.6282 52.919C52.0809 52.919 52.5602 52.6926 53.0661 52.2399C53.5854 51.7872 54.1313 50.9951 54.7038 49.8633L54.8835 50.0631C54.4974 51.2081 53.9382 52.0868 53.2059 52.6993C52.4869 53.3117 51.7347 53.6179 50.9492 53.6179ZM53.3457 44.4711C53.1327 44.4711 52.9396 44.4179 52.7665 44.3113C52.6068 44.2048 52.5269 44.0384 52.5269 43.8121C52.5269 43.5325 52.6867 43.2928 53.0062 43.0931C53.3391 42.8801 53.6653 42.7736 53.9848 42.7736C54.1845 42.7736 54.3443 42.8202 54.4641 42.9134C54.5839 43.0065 54.6438 43.1663 54.6438 43.3927C54.6438 43.6456 54.504 43.8919 54.2245 44.1316C53.9582 44.3579 53.6653 44.4711 53.3457 44.4711Z" fill="#213721"/>
<path d="M45.1926 54.2171C44.5535 54.2171 44.0209 54.0041 43.5949 53.578C43.1688 53.152 42.9558 52.5129 42.9558 51.6608C42.9558 50.9951 43.0823 50.3493 43.3353 49.7236C43.6015 49.0845 43.9477 48.512 44.3738 48.006C44.7998 47.5001 45.2725 47.1007 45.7917 46.8078C46.311 46.5015 46.8236 46.3484 47.3295 46.3484C47.8754 46.3484 48.2482 46.5082 48.4479 46.8277C48.6476 47.1473 48.7475 47.4801 48.7475 47.8263C48.7475 48.2124 48.6543 48.5519 48.4679 48.8448C48.2948 49.1377 48.0551 49.2842 47.7489 49.2842C47.5226 49.2842 47.3295 49.1843 47.1697 48.9846C47.3695 48.8781 47.5425 48.6651 47.689 48.3455C47.8355 48.0127 47.9087 47.6998 47.9087 47.4069C47.9087 47.2471 47.8754 47.1273 47.8088 47.0474C47.7556 46.9542 47.6424 46.9076 47.4693 46.9076C47.1098 46.9076 46.737 47.0674 46.3509 47.3869C45.9781 47.7065 45.6253 48.1192 45.2924 48.6251C44.9729 49.1311 44.7066 49.6637 44.4936 50.2228C44.2939 50.782 44.194 51.308 44.194 51.8006C44.194 52.2133 44.2939 52.5928 44.4936 52.9389C44.6933 53.2851 45.0794 53.4582 45.6519 53.4582C46.1845 53.4582 46.7171 53.3117 47.2496 53.0188C47.7955 52.7259 48.3015 52.3065 48.7674 51.7606C49.2334 51.2148 49.6062 50.5757 49.8858 49.8434L50.1455 50.0431C49.8392 50.842 49.4198 51.5609 48.8873 52.2C48.3547 52.8258 47.7689 53.3184 47.1298 53.6779C46.4907 54.0374 45.845 54.2171 45.1926 54.2171Z" fill="#213721"/>
<path d="M35.316 54.0373C34.9033 54.0373 34.5571 53.8975 34.2775 53.6179C33.9846 53.3517 33.8381 52.9389 33.8381 52.3797C33.8381 51.9004 33.9446 51.3878 34.1577 50.8419C34.3707 50.2827 34.6636 49.7369 35.0364 49.2043C35.4092 48.6584 35.8286 48.1658 36.2946 47.7264C36.7739 47.2737 37.2732 46.9143 37.7924 46.648C38.325 46.3817 38.8509 46.2485 39.3702 46.2485C39.8894 46.2485 40.3221 46.3883 40.6683 46.6679C41.0145 46.9342 41.1876 47.2937 41.1876 47.7464C41.1876 48.0792 41.0944 48.3056 40.908 48.4254C40.7349 48.5452 40.5019 48.6052 40.209 48.6052C40.2356 48.4986 40.2556 48.3855 40.2689 48.2656C40.2955 48.1325 40.3088 48.0127 40.3088 47.9062C40.3088 47.5999 40.2356 47.3403 40.0891 47.1273C39.9427 46.9009 39.6897 46.7878 39.3302 46.7878C38.9574 46.7878 38.578 46.9209 38.1919 47.1872C37.8058 47.4402 37.433 47.7863 37.0735 48.2257C36.714 48.6518 36.3945 49.1178 36.1149 49.6237C35.8353 50.1296 35.6156 50.6289 35.4558 51.1215C35.296 51.6142 35.2162 52.0535 35.2162 52.4396C35.2162 52.9589 35.3959 53.2185 35.7554 53.2185C36.0616 53.2185 36.3945 53.0787 36.7539 52.7991C37.1134 52.5062 37.4796 52.1401 37.8524 51.7007C38.2385 51.248 38.6046 50.782 38.9508 50.3027C39.2969 49.8234 39.6032 49.384 39.8695 48.9846C39.9227 48.9047 39.956 48.8648 39.9693 48.8648C40.0492 48.8781 40.1491 48.9047 40.2689 48.9447C40.402 48.9846 40.5152 49.0379 40.6084 49.1044C40.7016 49.171 40.7482 49.2576 40.7482 49.3641C40.7482 49.4839 40.6883 49.6503 40.5684 49.8633C40.4486 50.0631 40.3155 50.2961 40.169 50.5623C40.0226 50.8286 39.8894 51.1016 39.7696 51.3812C39.6498 51.6474 39.5899 51.9004 39.5899 52.1401C39.5899 52.3398 39.6431 52.5395 39.7496 52.7392C39.8561 52.9256 40.0292 53.0188 40.2689 53.0188C40.6284 53.0188 41.101 52.7592 41.6868 52.2399C42.2727 51.7074 42.8651 50.9152 43.4643 49.8633L43.664 50.0631C43.3844 50.782 43.0249 51.4144 42.5855 51.9603C42.1462 52.5062 41.6735 52.9323 41.1676 53.2385C40.675 53.5447 40.189 53.6978 39.7097 53.6978C39.2171 53.6978 38.8509 53.5514 38.6113 53.2585C38.3849 52.9655 38.2718 52.646 38.2718 52.2998C38.2718 52.22 38.2784 52.1334 38.2917 52.0402C38.305 51.9337 38.3184 51.8272 38.3317 51.7207C37.7592 52.4929 37.2332 53.0721 36.7539 53.4582C36.2879 53.8443 35.8086 54.0373 35.316 54.0373Z" fill="#213721"/>
<path d="M28.5967 54.8362C27.9842 54.783 27.6048 54.6165 27.4583 54.3369C27.3119 54.0574 27.2386 53.6979 27.2386 53.2585C27.2386 52.7792 27.3385 52.1934 27.5382 51.501C27.7379 50.7954 27.9842 50.0298 28.2771 49.2043C28.5834 48.3789 28.8896 47.5534 29.1958 46.7279C29.036 46.7412 28.863 46.7612 28.6766 46.7878C28.5035 46.8011 28.2838 46.8278 28.0175 46.8677C27.7512 46.8943 27.4051 46.9409 26.979 47.0075C27.0056 46.6613 27.1321 46.395 27.3585 46.2086C27.5981 46.0089 27.911 45.8625 28.2971 45.7693C28.6832 45.6761 29.1159 45.6228 29.5952 45.6095C29.968 44.5843 30.3475 43.5858 30.7336 42.6138C31.133 41.6286 31.5258 40.7299 31.9119 39.9177C31.7788 39.9044 31.6456 39.8977 31.5125 39.8977C31.3927 39.8844 31.2662 39.8778 31.133 39.8778C30.2809 39.8778 29.6219 39.9643 29.1559 40.1374C28.6899 40.3105 28.3703 40.5767 28.1973 40.9362C28.0242 41.2957 27.9376 41.7551 27.9376 42.3142C27.9376 42.6072 27.9576 42.8801 27.9975 43.1331C28.0375 43.3727 28.1041 43.6257 28.1973 43.892C27.7446 43.8121 27.4117 43.639 27.1987 43.3727C26.9857 43.0931 26.8792 42.747 26.8792 42.3342C26.8792 41.6419 27.1255 41.0361 27.6181 40.5168C28.1107 39.9843 28.7698 39.5715 29.5952 39.2786C30.434 38.9724 31.3594 38.8193 32.3712 38.8193C33.0769 38.8193 33.7559 38.8725 34.4083 38.979C35.074 39.0722 35.7198 39.1188 36.3455 39.1188C36.6251 39.1188 36.8781 39.1055 37.1044 39.0789C37.3441 39.039 37.5837 38.9857 37.8234 38.9191C37.3308 39.4783 36.918 39.8511 36.5852 40.0375C36.2523 40.2239 35.9128 40.3171 35.5666 40.3171C35.2604 40.3171 34.861 40.2772 34.3684 40.1973C33.8891 40.1041 33.3432 40.0309 32.7307 39.9776C32.5576 40.417 32.3646 40.9495 32.1516 41.5753C31.9385 42.1878 31.7189 42.8468 31.4925 43.5525C31.2662 44.2448 31.0398 44.9371 30.8135 45.6295C31.4792 45.6694 32.105 45.7293 32.6908 45.8092C33.2899 45.8891 33.8291 45.9357 34.3085 45.949C34.2019 46.1088 34.0755 46.2353 33.929 46.3285C33.7959 46.4084 33.6028 46.4683 33.3498 46.5082C33.0969 46.5482 32.744 46.5814 32.2914 46.6081C31.852 46.6214 31.2595 46.6347 30.5139 46.648C30.434 46.9276 30.3342 47.2605 30.2144 47.6466C30.0945 48.0327 29.988 48.3988 29.8948 48.745C29.8016 49.0912 29.7284 49.3441 29.6751 49.5039C29.3822 50.5291 29.1292 51.4877 28.9162 52.3798C28.7165 53.2718 28.61 54.0906 28.5967 54.8362Z" fill="#213721"/>
</svg>
