<svg width="25" height="25" viewBox="0 0 25 25" fill="none" xmlns="http://www.w3.org/2000/svg">
<path d="M12.5 6.75C11.3628 6.75 10.2511 7.08723 9.30547 7.71905C8.35989 8.35087 7.6229 9.24889 7.18769 10.2996C6.75249 11.3502 6.63862 12.5064 6.86049 13.6218C7.08235 14.7372 7.62998 15.7617 8.43414 16.5659C9.23829 17.37 10.2628 17.9177 11.3782 18.1395C12.4936 18.3614 13.6498 18.2475 14.7004 17.8123C15.7511 17.3771 16.6491 16.6401 17.281 15.6945C17.9128 14.7489 18.25 13.6372 18.25 12.5C18.25 10.975 17.6442 9.51247 16.5659 8.43414C15.4875 7.3558 14.025 6.75 12.5 6.75ZM12.5 16.75C11.6594 16.75 10.8377 16.5007 10.1388 16.0337C9.43992 15.5668 8.89518 14.903 8.57351 14.1264C8.25184 13.3498 8.16768 12.4953 8.33166 11.6709C8.49565 10.8464 8.90042 10.0892 9.4948 9.4948C10.0892 8.90042 10.8464 8.49565 11.6709 8.33166C12.4953 8.16768 13.3498 8.25184 14.1264 8.57351C14.903 8.89518 15.5668 9.43992 16.0337 10.1388C16.5007 10.8377 16.75 11.6594 16.75 12.5C16.7467 13.6262 16.2979 14.7052 15.5016 15.5016C14.7052 16.2979 13.6262 16.7467 12.5 16.75ZM18 0.25H7C5.20979 0.25 3.4929 0.961159 2.22703 2.22703C0.961159 3.4929 0.25 5.20979 0.25 7V18C0.25 19.7902 0.961159 21.5071 2.22703 22.773C3.4929 24.0388 5.20979 24.75 7 24.75H18C19.7902 24.75 21.5071 24.0388 22.773 22.773C24.0388 21.5071 24.75 19.7902 24.75 18V7C24.75 5.20979 24.0388 3.4929 22.773 2.22703C21.5071 0.961159 19.7902 0.25 18 0.25ZM23.25 18C23.25 19.3924 22.6969 20.7277 21.7123 21.7123C20.7277 22.6969 19.3924 23.25 18 23.25H7C5.60761 23.25 4.27225 22.6969 3.28769 21.7123C2.30312 20.7277 1.75 19.3924 1.75 18V7C1.75 5.60761 2.30312 4.27225 3.28769 3.28769C4.27225 2.30312 5.60761 1.75 7 1.75H18C19.3924 1.75 20.7277 2.30312 21.7123 3.28769C22.6969 4.27225 23.25 5.60761 23.25 7V18ZM20.25 6C20.25 6.24723 20.1767 6.4889 20.0393 6.69446C19.902 6.90002 19.7068 7.06024 19.4784 7.15485C19.2499 7.24946 18.9986 7.27421 18.7561 7.22598C18.5137 7.17775 18.2909 7.0587 18.1161 6.88388C17.9413 6.70907 17.8223 6.48634 17.774 6.24386C17.7258 6.00139 17.7505 5.75005 17.8451 5.52165C17.9398 5.29324 18.1 5.09801 18.3055 4.96066C18.5111 4.82331 18.7528 4.75 19 4.75C19.3315 4.75 19.6495 4.8817 19.8839 5.11612C20.1183 5.35054 20.25 5.66848 20.25 6Z" fill="#213721"/>
</svg>
