<svg width="48" height="48" viewBox="0 0 74 75" fill="none" xmlns="http://www.w3.org/2000/svg">
<g clip-path="url(#clip0_4602_58448)">
<path fill-rule="evenodd" clip-rule="evenodd" d="M20.1142 31.7578C16.1741 31.7578 12.9697 34.9622 12.9697 38.9019L12.9699 65.7402C12.9699 69.68 16.1741 72.8843 20.1138 72.8843H37.0111C40.9506 72.8843 44.155 69.68 44.155 65.7402L44.1553 38.9019C44.1553 34.9622 40.9506 31.7578 37.0109 31.7578H20.1142ZM37.0111 74.5001H20.1142C15.2838 74.5001 11.354 70.5702 11.354 65.7402V38.9019C11.354 34.0718 15.2838 30.1421 20.1138 30.1421H37.0111C41.8409 30.1421 45.7707 34.0718 45.7707 38.9019V65.7402C45.7707 70.5702 41.8409 74.5001 37.0111 74.5001Z" fill="#3C5E39"/>
<path fill-rule="evenodd" clip-rule="evenodd" d="M20.8833 46.4403C19.8078 46.4403 18.9325 47.3155 18.9325 48.3908L18.9328 56.252C18.9328 57.3273 19.8077 58.2025 20.8831 58.2025H36.242C37.3174 58.2025 38.1923 57.3273 38.1923 56.252L38.1926 48.3908C38.1926 47.3153 37.3172 46.4403 36.2418 46.4403H20.8833ZM36.242 59.8181H20.8833C18.9176 59.8181 17.3169 58.2177 17.3169 56.252L17.3171 48.3908C17.3171 46.4251 18.9174 44.8247 20.8831 44.8247H36.242C38.2076 44.8247 39.808 46.4251 39.808 48.3908L39.8084 56.252C39.8084 58.2177 38.2075 59.8181 36.242 59.8181Z" fill="#3C5E39"/>
<path fill-rule="evenodd" clip-rule="evenodd" d="M35.3667 31.7579C34.9207 31.7579 34.5586 31.396 34.5586 30.9499V16.3301H22.5644V30.9499C22.5644 31.396 22.204 31.7579 21.7564 31.7579C21.3107 31.7579 20.9485 31.396 20.9485 30.9499L20.9487 15.5223C20.9487 15.0763 21.3104 14.7144 21.7564 14.7144H35.3667C35.8143 14.7144 36.1743 15.0763 36.1743 15.5223L36.1745 30.9499C36.1745 31.396 35.8141 31.7579 35.3667 31.7579Z" fill="#3C5E39"/>
<path fill-rule="evenodd" clip-rule="evenodd" d="M35.3683 21.4736H21.7568C21.3107 21.4736 20.9485 21.1118 20.9485 20.6657C20.9487 20.2181 21.3104 19.8579 21.7564 19.8579H35.3683C35.8143 19.8579 36.176 20.2181 36.176 20.6657C36.176 21.1118 35.8141 21.4736 35.3683 21.4736Z" fill="#3C5E39"/>
<path fill-rule="evenodd" clip-rule="evenodd" d="M35.3683 26.6146H21.7568C21.3107 26.6146 20.9485 26.2529 20.9485 25.8068C20.9487 25.3608 21.3104 24.999 21.7564 24.999H35.3683C35.8143 24.999 36.176 25.3608 36.176 25.8068C36.176 26.2529 35.8141 26.6146 35.3683 26.6146Z" fill="#3C5E39"/>
<path fill-rule="evenodd" clip-rule="evenodd" d="M44.559 18.1664C44.2023 18.1681 43.8757 17.9291 43.7781 17.5689L40.7927 6.42431C40.4191 5.02912 40.4928 3.73653 41.0061 2.68652C41.5061 1.66654 42.3964 0.939503 43.5138 0.640084C44.6331 0.340323 45.7673 0.525539 46.7098 1.15835C47.6792 1.8096 48.3894 2.89341 48.763 4.2886L51.7487 15.4332C51.865 15.8641 51.6089 16.3067 51.178 16.4211C50.7475 16.5373 50.3045 16.2814 50.1884 15.8506L47.2028 4.70598C46.932 3.69283 46.4489 2.93046 45.8076 2.49976C45.2508 2.12438 44.6027 2.02178 43.9329 2.20188C43.2632 2.38027 42.7531 2.79423 42.457 3.39666C42.1188 4.09007 42.0816 4.99208 42.3542 6.00523L45.3399 17.1498C45.4546 17.5807 45.1985 18.0233 44.7676 18.1394C44.6987 18.1578 44.6278 18.1664 44.559 18.1664Z" fill="#3C5E39"/>
<path fill-rule="evenodd" clip-rule="evenodd" d="M44.2493 17.4426H44.2512H44.2493ZM52.2805 16.2343C52.0214 16.2343 51.7537 16.268 51.4878 16.3386L44.4584 18.2219C43.189 18.5634 42.3307 19.6524 42.5849 20.6017L43.9014 25.5158L55.6161 22.3755L54.3003 17.4612C54.0999 16.7123 53.2532 16.2343 52.2805 16.2343ZM43.3307 27.3117C43.189 27.3117 43.0494 27.2763 42.9265 27.2039C42.7399 27.0962 42.605 26.9211 42.5495 26.7142L41.0231 21.0191C40.5354 19.193 41.8881 17.2391 44.0407 16.6618L51.0687 14.7785C53.223 14.2012 55.372 15.2178 55.8618 17.0438L57.3867 22.7374C57.5026 23.1681 57.2469 23.6124 56.816 23.7268L43.5393 27.2847C43.4703 27.3031 43.3993 27.3117 43.3307 27.3117Z" fill="#3C5E39"/>
<path fill-rule="evenodd" clip-rule="evenodd" d="M58.4167 57.0632C58.1674 57.0632 57.9284 56.9487 57.7736 56.745L53.5947 51.2536C53.536 51.1745 53.4921 51.0869 53.4634 50.9944L45.9827 25.8155C45.8549 25.3881 46.0988 24.9388 46.5263 24.8124C46.9556 24.6846 47.4049 24.9287 47.531 25.3561L54.9701 50.3918L57.8646 54.197L58.4689 49.4545L52.3933 24.0535C52.2905 23.6192 52.558 23.1834 52.9906 23.0791C53.425 22.9763 53.8607 23.244 53.965 23.6783L60.0746 49.2221C60.098 49.3165 60.1027 49.4157 60.091 49.5117L59.2176 56.358C59.1755 56.6829 58.9416 56.9521 58.6251 57.0362C58.5563 57.0547 58.4855 57.0632 58.4167 57.0632Z" fill="#3C5E39"/>
<path fill-rule="evenodd" clip-rule="evenodd" d="M58.4083 64.229C58.3644 64.3164 58.3188 64.4057 58.2734 64.4965C57.4151 66.2013 55.6293 69.749 55.8111 70.7251H55.8115C56.0455 71.9772 57.1408 72.8843 58.4165 72.8843C59.7075 72.8843 60.8045 71.9639 61.0266 70.6948C61.1734 69.8517 59.4313 66.309 58.5949 64.6059C58.531 64.478 58.4685 64.3517 58.4083 64.229ZM58.4166 74.5001C56.3635 74.5001 54.6012 73.0374 54.2241 71.0229H54.2244C53.9615 69.6211 55.1935 67.0226 56.8311 63.7694C57.1879 63.0608 57.4958 62.4466 57.6759 62.0376C57.8055 61.7449 58.095 61.5547 58.4165 61.5547C58.7362 61.5547 59.0272 61.7449 59.1553 62.0376C59.3572 62.4972 59.6753 63.1435 60.0438 63.8939C61.6898 67.2414 62.8391 69.7087 62.6187 70.9726C62.2604 73.0173 60.4931 74.5001 58.4166 74.5001Z" fill="#3C5E39"/>
</g>
<defs>
<clipPath id="clip0_4602_58448">
<rect width="74" height="74" fill="white" transform="translate(0 0.5)"/>
</clipPath>
</defs>
</svg>
