<svg width="28" height="25" viewBox="0 0 28 25" fill="none" xmlns="http://www.w3.org/2000/svg">
<path d="M27.1875 4.21249C27.1311 4.07639 27.0357 3.95994 26.9135 3.87768C26.7912 3.79543 26.6474 3.75102 26.5 3.74999H22.55C22.0618 2.85327 21.3436 2.10273 20.4693 1.57548C19.5949 1.04824 18.596 0.763315 17.575 0.749994C16.0411 0.743325 14.5669 1.3446 13.4753 2.42223C12.3836 3.49986 11.7632 4.96608 11.75 6.49999V7.58749C6.45003 6.32499 2.07503 2.01249 2.02503 1.97499C1.92867 1.87986 1.80834 1.8126 1.67683 1.78033C1.54532 1.74807 1.40752 1.75202 1.27807 1.79175C1.14862 1.83148 1.03234 1.90552 0.941572 2.00601C0.850804 2.10649 0.788936 2.22968 0.762532 2.36249C-0.324969 8.31249 1.46253 12.2875 3.15003 14.575C4.04503 15.7998 5.14446 16.8612 6.40003 17.7125C4.46253 20.0625 1.27503 21.2875 1.23753 21.3C1.13103 21.3392 1.03502 21.4025 0.956971 21.4849C0.87892 21.5672 0.820936 21.6665 0.787532 21.775C0.752061 21.8808 0.741504 21.9934 0.756681 22.104C0.771858 22.2146 0.81236 22.3201 0.875032 22.4125C1.00003 22.6 2.22503 24.25 6.50003 24.25C15.2125 24.25 22.5 17.5125 23.2 8.86249L27.025 5.02499C27.1335 4.92341 27.2074 4.79048 27.2365 4.64479C27.2657 4.49911 27.2485 4.34796 27.1875 4.21249ZM21.9375 7.99999C21.8075 8.12971 21.7316 8.30394 21.725 8.48749C21.2125 16.4875 14.525 22.75 6.50003 22.75C4.76253 22.75 3.65003 22.45 2.98753 22.15C4.40003 21.4375 6.71253 20.0375 8.12503 17.9125C8.1813 17.8244 8.21917 17.7258 8.23636 17.6227C8.25354 17.5196 8.24969 17.4141 8.22503 17.3125C8.19838 17.2085 8.15009 17.1114 8.08332 17.0274C8.01655 16.9434 7.93279 16.8744 7.83753 16.825C7.81253 16.825 5.93753 15.85 4.31253 13.625C2.37503 10.975 1.61253 7.73749 2.03753 3.99999C3.86253 5.54999 7.80003 8.47499 12.375 9.23749C12.4827 9.25795 12.5936 9.25414 12.6996 9.22635C12.8056 9.19857 12.9041 9.1475 12.9879 9.07686C13.0718 9.00622 13.1388 8.9178 13.1841 8.81801C13.2294 8.71822 13.252 8.60958 13.25 8.49999V6.49999C13.2599 5.36722 13.7177 4.2844 14.5234 3.48808C15.3291 2.69175 16.4172 2.24665 17.55 2.24999C18.3686 2.26181 19.1665 2.50839 19.849 2.96043C20.5315 3.41246 21.0698 4.05095 21.4 4.79999C21.4571 4.93474 21.5529 5.04948 21.6753 5.12961C21.7977 5.20974 21.9412 5.25165 22.0875 5.24999H24.6875L21.9375 7.99999Z" fill="#213721"/>
</svg>
